<svg width="1668" height="945" xmlns="http://www.w3.org/2000/svg" xmlns:xlink="http://www.w3.org/1999/xlink" xml:space="preserve" overflow="hidden"><defs><clipPath id="clip0"><rect x="1416" y="1177" width="1668" height="945"/></clipPath><clipPath id="clip1"><rect x="1416" y="1177" width="1668" height="945"/></clipPath><clipPath id="clip2"><path d="M1418.56 1443.97 1756.17 1228.39 2187.81 1904.36 1850.21 2119.94Z" fill-rule="nonzero" clip-rule="nonzero"/></clipPath><clipPath id="clip3"><path d="M1418.56 1443.97 1756.17 1228.39 2187.81 1904.36 1850.21 2119.94Z" fill-rule="evenodd" clip-rule="evenodd"/></clipPath><clipPath id="clip4"><path d="M1418.56 1443.97 2136.36 985.612 2568.01 1661.58 1850.21 2119.94Z" fill-rule="evenodd" clip-rule="evenodd"/></clipPath></defs><g clip-path="url(#clip0)" transform="translate(-1416 -1177)"><g clip-path="url(#clip1)"><text fill="#4E95D9" fill-opacity="1" font-family="Helvetica,Helvetica_MSFontService,sans-serif" font-style="normal" font-variant="normal" font-weight="700" font-stretch="normal" font-size="248" text-anchor="start" direction="ltr" writing-mode="lr-tb" unicode-bidi="normal" text-decoration="none" transform="matrix(1 0 0 1 1929.93 1564)">LIPID</text><text fill="#000000" fill-opacity="1" font-family="Helvetica,Helvetica_MSFontService,sans-serif" font-style="normal" font-variant="normal" font-weight="700" font-stretch="normal" font-size="248" text-anchor="start" direction="ltr" writing-mode="lr-tb" unicode-bidi="normal" text-decoration="none" transform="matrix(1 0 0 1 2562.43 1564)"> </text><text fill="#000000" fill-opacity="1" font-family="Helvetica,Helvetica_MSFontService,sans-serif" font-style="normal" font-variant="normal" font-weight="700" font-stretch="normal" font-size="248" text-anchor="start" direction="ltr" writing-mode="lr-tb" unicode-bidi="normal" text-decoration="none" transform="matrix(1 0 0 1 1929.93 1802)">    </text><text fill="#46B1E1" fill-opacity="1" font-family="Helvetica,Helvetica_MSFontService,sans-serif" font-style="normal" font-variant="normal" font-weight="700" font-stretch="normal" font-size="248" text-anchor="start" direction="ltr" writing-mode="lr-tb" unicode-bidi="normal" text-decoration="none" transform="matrix(1 0 0 1 2204.93 1802)">PLUS</text><text fill="#46B1E1" fill-opacity="1" font-family="Helvetica,Helvetica_MSFontService,sans-serif" font-style="normal" font-variant="normal" font-weight="700" font-stretch="normal" font-size="248" text-anchor="start" direction="ltr" writing-mode="lr-tb" unicode-bidi="normal" text-decoration="none" transform="matrix(1 0 0 1 2864.93 1802)"> </text><g clip-path="url(#clip2)"><g clip-path="url(#clip3)"><g clip-path="url(#clip4)"><path d="M162.532 404.995C162.532 204.009 340.601 41.0779 560.261 41.0779 779.921 41.0779 957.99 204.009 957.99 404.995 957.99 605.982 779.921 768.914 560.261 768.914 340.601 768.914 162.532 605.982 162.532 404.995ZM344.491 404.995C344.491 505.489 441.093 586.954 560.261 586.954 679.428 586.954 776.031 505.489 776.031 404.995 776.031 304.503 679.428 223.037 560.261 223.037 441.093 223.037 344.491 304.503 344.491 404.995Z" fill="#C1E5F5" fill-rule="evenodd" fill-opacity="1" transform="matrix(0.842822 -0.538192 0.538223 0.842869 1307.27 1509.41)"/><path d="M159.231 347.993C146.352 345.145 138.349 331.819 141.356 318.232 144.362 304.644 157.239 295.939 170.117 298.787 182.997 301.638 191 314.962 187.993 328.55 184.987 342.139 172.109 350.844 159.231 347.993Z" stroke="#4E95D9" stroke-width="2.88868" stroke-linecap="butt" stroke-linejoin="miter" stroke-miterlimit="8" stroke-opacity="1" fill="#4E95D9" fill-rule="evenodd" fill-opacity="1" transform="matrix(0.842822 -0.538192 0.538223 0.842869 1307.27 1509.41)"/><path d="M240.519 308.132C227.695 323.222 209.542 329.685 181.612 316.332" stroke="#4E95D9" stroke-width="2.88868" stroke-linecap="butt" stroke-linejoin="miter" stroke-miterlimit="8" stroke-opacity="1" fill="none" fill-rule="evenodd" transform="matrix(0.842822 -0.538192 0.538223 0.842869 1307.27 1509.41)"/><path d="M176.599 338.406C200.18 327.208 222.817 337.889 229.968 355.604" stroke="#4E95D9" stroke-width="2.88868" stroke-linecap="butt" stroke-linejoin="miter" stroke-miterlimit="8" stroke-opacity="1" fill="none" fill-rule="evenodd" transform="matrix(0.842822 -0.538192 0.538223 0.842869 1307.27 1509.41)"/><path d="M149.635 404.897C136.756 402.049 128.753 388.723 131.759 375.136 134.766 361.548 147.643 352.843 160.521 355.691 173.401 358.542 181.403 371.866 178.397 385.454 175.391 399.043 162.513 407.748 149.635 404.897Z" stroke="#4E95D9" stroke-width="2.88868" stroke-linecap="butt" stroke-linejoin="miter" stroke-miterlimit="8" stroke-opacity="1" fill="#4E95D9" fill-rule="evenodd" fill-opacity="1" transform="matrix(0.842822 -0.538192 0.538223 0.842869 1307.27 1509.41)"/><path d="M230.923 365.036C218.098 380.126 199.945 386.589 172.015 373.236" stroke="#4E95D9" stroke-width="2.88868" stroke-linecap="butt" stroke-linejoin="miter" stroke-miterlimit="8" stroke-opacity="1" fill="none" fill-rule="evenodd" transform="matrix(0.842822 -0.538192 0.538223 0.842869 1307.27 1509.41)"/><path d="M167.003 395.31C190.582 384.112 213.221 394.793 220.372 412.508" stroke="#4E95D9" stroke-width="2.88868" stroke-linecap="butt" stroke-linejoin="miter" stroke-miterlimit="8" stroke-opacity="1" fill="none" fill-rule="evenodd" transform="matrix(0.842822 -0.538192 0.538223 0.842869 1307.27 1509.41)"/><path d="M194.235 569.279C181.256 571.629 168.723 562.435 166.242 548.741 163.761 535.048 172.272 522.041 185.251 519.689 198.23 517.338 210.762 526.532 213.243 540.226 215.723 553.92 207.213 566.927 194.235 569.279Z" stroke="#4E95D9" stroke-width="2.88868" stroke-linecap="butt" stroke-linejoin="miter" stroke-miterlimit="8" stroke-opacity="1" fill="#4E95D9" fill-rule="evenodd" fill-opacity="1" transform="matrix(0.842822 -0.538192 0.538223 0.842869 1307.27 1509.41)"/><path d="M253.789 501.088C247.798 519.963 233.554 532.94 202.633 531.425" stroke="#4E95D9" stroke-width="2.88868" stroke-linecap="butt" stroke-linejoin="miter" stroke-miterlimit="8" stroke-opacity="1" fill="none" fill-rule="evenodd" transform="matrix(0.842822 -0.538192 0.538223 0.842869 1307.27 1509.41)"/><path d="M206.546 553.719C223.962 534.278 248.969 535.374 262.412 548.947" stroke="#4E95D9" stroke-width="2.88868" stroke-linecap="butt" stroke-linejoin="miter" stroke-miterlimit="8" stroke-opacity="1" fill="none" fill-rule="evenodd" transform="matrix(0.842822 -0.538192 0.538223 0.842869 1307.27 1509.41)"/><path d="M173.107 519.856C159.956 520.871 148.428 510.444 147.358 496.568 146.288 482.693 156.083 470.622 169.233 469.609 182.384 468.595 193.913 479.022 194.982 492.896 196.051 506.772 186.258 518.842 173.107 519.856Z" stroke="#4E95D9" stroke-width="2.88868" stroke-linecap="butt" stroke-linejoin="miter" stroke-miterlimit="8" stroke-opacity="1" fill="#4E95D9" fill-rule="evenodd" fill-opacity="1" transform="matrix(0.842822 -0.538192 0.538223 0.842869 1307.27 1509.41)"/><path d="M239.314 458.101C231.426 476.268 215.932 487.722 185.327 483.058" stroke="#4E95D9" stroke-width="2.88868" stroke-linecap="butt" stroke-linejoin="miter" stroke-miterlimit="8" stroke-opacity="1" fill="none" fill-rule="evenodd" transform="matrix(0.842822 -0.538192 0.538223 0.842869 1307.27 1509.41)"/><path d="M186.943 505.636C206.252 488.073 231.018 491.717 243.005 506.593" stroke="#4E95D9" stroke-width="2.88868" stroke-linecap="butt" stroke-linejoin="miter" stroke-miterlimit="8" stroke-opacity="1" fill="none" fill-rule="evenodd" transform="matrix(0.842822 -0.538192 0.538223 0.842869 1307.27 1509.41)"/><path d="M158.392 461.951C145.224 461.19 135.201 449.311 136.005 435.417 136.808 421.523 148.135 410.878 161.303 411.64 174.471 412.401 184.495 424.281 183.691 438.175 182.887 452.069 171.56 462.713 158.392 461.951Z" stroke="#4E95D9" stroke-width="2.88868" stroke-linecap="butt" stroke-linejoin="miter" stroke-miterlimit="8" stroke-opacity="1" fill="#4E95D9" fill-rule="evenodd" fill-opacity="1" transform="matrix(0.842822 -0.538192 0.538223 0.842869 1307.27 1509.41)"/><path d="M232.293 409.65C222.037 426.592 205.145 435.862 175.444 427.128" stroke="#4E95D9" stroke-width="2.88868" stroke-linecap="butt" stroke-linejoin="miter" stroke-miterlimit="8" stroke-opacity="1" fill="none" fill-rule="evenodd" transform="matrix(0.842822 -0.538192 0.538223 0.842869 1307.27 1509.41)"/><path d="M174.013 449.72C195.507 434.91 219.558 441.847 229.439 458.196" stroke="#4E95D9" stroke-width="2.88868" stroke-linecap="butt" stroke-linejoin="miter" stroke-miterlimit="8" stroke-opacity="1" fill="none" fill-rule="evenodd" transform="matrix(0.842822 -0.538192 0.538223 0.842869 1307.27 1509.41)"/><path d="M944.759 485.342C957.18 489.777 963.459 503.996 958.78 517.104 954.101 530.21 940.237 537.239 927.816 532.805 915.393 528.371 909.116 514.151 913.795 501.045 918.473 487.939 932.336 480.908 944.759 485.342Z" stroke="#4E95D9" stroke-width="2.88868" stroke-linecap="butt" stroke-linejoin="miter" stroke-miterlimit="8" stroke-opacity="1" fill="#4E95D9" fill-rule="evenodd" fill-opacity="1" transform="matrix(0.842822 -0.538192 0.538223 0.842869 1307.27 1509.41)"/><path d="M859.131 514.749C873.738 501.376 892.556 497.231 918.601 513.964" stroke="#4E95D9" stroke-width="2.88868" stroke-linecap="butt" stroke-linejoin="miter" stroke-miterlimit="8" stroke-opacity="1" fill="none" fill-rule="evenodd" transform="matrix(0.842822 -0.538192 0.538223 0.842869 1307.27 1509.41)"/><path d="M926.329 492.688C901.536 500.855 880.407 487.434 875.524 468.964" stroke="#4E95D9" stroke-width="2.88868" stroke-linecap="butt" stroke-linejoin="miter" stroke-miterlimit="8" stroke-opacity="1" fill="none" fill-rule="evenodd" transform="matrix(0.842822 -0.538192 0.538223 0.842869 1307.27 1509.41)"/><path d="M961.381 430.081C973.804 434.515 980.081 448.735 975.403 461.841 970.724 474.948 956.861 481.979 944.438 477.544 932.016 473.109 925.738 458.89 930.417 445.783 935.096 432.676 948.958 425.647 961.381 430.081Z" stroke="#4E95D9" stroke-width="2.88868" stroke-linecap="butt" stroke-linejoin="miter" stroke-miterlimit="8" stroke-opacity="1" fill="#4E95D9" fill-rule="evenodd" fill-opacity="1" transform="matrix(0.842822 -0.538192 0.538223 0.842869 1307.27 1509.41)"/><path d="M875.754 459.487C890.361 446.115 909.178 441.968 935.225 458.702" stroke="#4E95D9" stroke-width="2.88868" stroke-linecap="butt" stroke-linejoin="miter" stroke-miterlimit="8" stroke-opacity="1" fill="none" fill-rule="evenodd" transform="matrix(0.842822 -0.538192 0.538223 0.842869 1307.27 1509.41)"/><path d="M942.951 437.428C918.159 445.593 897.03 432.172 892.146 413.703" stroke="#4E95D9" stroke-width="2.88868" stroke-linecap="butt" stroke-linejoin="miter" stroke-miterlimit="8" stroke-opacity="1" fill="none" fill-rule="evenodd" transform="matrix(0.842822 -0.538192 0.538223 0.842869 1307.27 1509.41)"/><path d="M924.163 537.389C936.585 541.823 942.862 556.043 938.183 569.15 933.505 582.256 919.642 589.285 907.219 584.851 894.798 580.417 888.521 566.197 893.199 553.091 897.878 539.984 911.741 532.954 924.163 537.389Z" stroke="#4E95D9" stroke-width="2.88868" stroke-linecap="butt" stroke-linejoin="miter" stroke-miterlimit="8" stroke-opacity="1" fill="#4E95D9" fill-rule="evenodd" fill-opacity="1" transform="matrix(0.842822 -0.538192 0.538223 0.842869 1307.27 1509.41)"/><path d="M840.236 566.587C854.843 553.214 873.66 549.067 899.706 565.803" stroke="#4E95D9" stroke-width="2.88868" stroke-linecap="butt" stroke-linejoin="miter" stroke-miterlimit="8" stroke-opacity="1" fill="none" fill-rule="evenodd" transform="matrix(0.842822 -0.538192 0.538223 0.842869 1307.27 1509.41)"/><path d="M905.733 544.734C880.941 552.901 859.812 539.48 854.929 521.01" stroke="#4E95D9" stroke-width="2.88868" stroke-linecap="butt" stroke-linejoin="miter" stroke-miterlimit="8" stroke-opacity="1" fill="none" fill-rule="evenodd" transform="matrix(0.842822 -0.538192 0.538223 0.842869 1307.27 1509.41)"/><path d="M931.089 258.883C944.086 256.639 956.542 265.936 958.911 279.65 961.279 293.363 952.661 306.3 939.663 308.544 926.665 310.789 914.21 301.491 911.842 287.778 909.473 274.064 918.091 261.128 931.089 258.883Z" stroke="#4E95D9" stroke-width="2.88868" stroke-linecap="butt" stroke-linejoin="miter" stroke-miterlimit="8" stroke-opacity="1" fill="#4E95D9" fill-rule="evenodd" fill-opacity="1" transform="matrix(0.842822 -0.538192 0.538223 0.842869 1307.27 1509.41)"/><path d="M875.045 325.42C881.193 306.594 895.542 293.734 926.45 295.504" stroke="#4E95D9" stroke-width="2.88868" stroke-linecap="butt" stroke-linejoin="miter" stroke-miterlimit="8" stroke-opacity="1" fill="none" fill-rule="evenodd" transform="matrix(0.842822 -0.538192 0.538223 0.842869 1307.27 1509.41)"/><path d="M911.664 278.054C894.088 297.352 869.091 296.051 855.759 282.367" stroke="#4E95D9" stroke-width="2.88868" stroke-linecap="butt" stroke-linejoin="miter" stroke-miterlimit="8" stroke-opacity="1" fill="none" fill-rule="evenodd" transform="matrix(0.842822 -0.538192 0.538223 0.842869 1307.27 1509.41)"/><path d="M952.439 313.092C965.614 313.728 975.751 325.512 975.081 339.412 974.41 353.311 963.187 364.066 950.011 363.43 936.837 362.795 926.701 351.011 927.371 337.112 928.041 323.21 939.264 312.457 952.439 313.092Z" stroke="#4E95D9" stroke-width="2.88868" stroke-linecap="butt" stroke-linejoin="miter" stroke-miterlimit="8" stroke-opacity="1" fill="#4E95D9" fill-rule="evenodd" fill-opacity="1" transform="matrix(0.842822 -0.538192 0.538223 0.842869 1307.27 1509.41)"/><path d="M879.044 366.102C889.137 349.063 905.939 339.63 935.723 348.078" stroke="#4E95D9" stroke-width="2.88868" stroke-linecap="butt" stroke-linejoin="miter" stroke-miterlimit="8" stroke-opacity="1" fill="none" fill-rule="evenodd" transform="matrix(0.842822 -0.538192 0.538223 0.842869 1307.27 1509.41)"/><path d="M936.938 325.475C915.586 340.49 891.47 333.784 881.432 317.529" stroke="#4E95D9" stroke-width="2.88868" stroke-linecap="butt" stroke-linejoin="miter" stroke-miterlimit="8" stroke-opacity="1" fill="none" fill-rule="evenodd" transform="matrix(0.842822 -0.538192 0.538223 0.842869 1307.27 1509.41)"/><path d="M959.812 372.381C972.782 374.78 981.245 387.818 978.714 401.501 976.183 415.186 963.616 424.335 950.646 421.935 937.676 419.537 929.213 406.499 931.744 392.814 934.276 379.13 946.842 369.981 959.812 372.381Z" stroke="#4E95D9" stroke-width="2.88868" stroke-linecap="butt" stroke-linejoin="miter" stroke-miterlimit="8" stroke-opacity="1" fill="#4E95D9" fill-rule="evenodd" fill-opacity="1" transform="matrix(0.842822 -0.538192 0.538223 0.842869 1307.27 1509.41)"/><path d="M879.962 415.05C892.253 399.522 910.169 392.432 938.548 404.803" stroke="#4E95D9" stroke-width="2.88868" stroke-linecap="butt" stroke-linejoin="miter" stroke-miterlimit="8" stroke-opacity="1" fill="none" fill-rule="evenodd" transform="matrix(0.842822 -0.538192 0.538223 0.842869 1307.27 1509.41)"/><path d="M942.788 382.569C919.612 394.579 896.616 384.695 888.853 367.239" stroke="#4E95D9" stroke-width="2.88868" stroke-linecap="butt" stroke-linejoin="miter" stroke-miterlimit="8" stroke-opacity="1" fill="none" fill-rule="evenodd" transform="matrix(0.842822 -0.538192 0.538223 0.842869 1307.27 1509.41)"/><path d="M189.974 216.933C181.244 207.046 182.623 191.564 193.054 182.352 203.487 173.141 219.021 173.688 227.751 183.577 236.481 193.463 235.102 208.946 224.671 218.158 214.24 227.368 198.706 226.821 189.974 216.933Z" stroke="#4E95D9" stroke-width="2.88868" stroke-linecap="butt" stroke-linejoin="miter" stroke-miterlimit="8" stroke-opacity="1" fill="#4E95D9" fill-rule="evenodd" fill-opacity="1" transform="matrix(0.842822 -0.538192 0.538223 0.842869 1307.27 1509.41)"/><path d="M279.147 232.587C259.895 237.231 241.419 231.764 226.708 204.523" stroke="#4E95D9" stroke-width="2.88868" stroke-linecap="butt" stroke-linejoin="miter" stroke-miterlimit="8" stroke-opacity="1" fill="none" fill-rule="evenodd" transform="matrix(0.842822 -0.538192 0.538223 0.842869 1307.27 1509.41)"/><path d="M209.659 219.412C235.31 224.25 247.317 246.212 242.664 264.74" stroke="#4E95D9" stroke-width="2.88868" stroke-linecap="butt" stroke-linejoin="miter" stroke-miterlimit="8" stroke-opacity="1" fill="none" fill-rule="evenodd" transform="matrix(0.842822 -0.538192 0.538223 0.842869 1307.27 1509.41)"/><path d="M318.821 93.4894C314.842 80.9138 322.372 67.316 335.64 63.1179 348.908 58.9196 362.891 65.711 366.87 78.2866 370.849 90.8622 363.318 104.46 350.05 108.658 336.782 112.856 322.799 106.065 318.821 93.4894Z" stroke="#4E95D9" stroke-width="2.88868" stroke-linecap="butt" stroke-linejoin="miter" stroke-miterlimit="8" stroke-opacity="1" fill="#4E95D9" fill-rule="evenodd" fill-opacity="1" transform="matrix(0.842822 -0.538192 0.538223 0.842869 1307.27 1509.41)"/><path d="M395.444 134.995C375.959 131.446 361.279 118.965 358.861 88.1012" stroke="#4E95D9" stroke-width="2.88868" stroke-linecap="butt" stroke-linejoin="miter" stroke-miterlimit="8" stroke-opacity="1" fill="none" fill-rule="evenodd" transform="matrix(0.842822 -0.538192 0.538223 0.842869 1307.27 1509.41)"/><path d="M339.855 104.082C361.35 118.892 363.435 143.835 351.677 158.893" stroke="#4E95D9" stroke-width="2.88868" stroke-linecap="butt" stroke-linejoin="miter" stroke-miterlimit="8" stroke-opacity="1" fill="none" fill-rule="evenodd" transform="matrix(0.842822 -0.538192 0.538223 0.842869 1307.27 1509.41)"/><path d="M368.243 72.3657C363.797 59.9473 370.816 46.0781 383.918 41.3884 397.021 36.6986 411.246 42.9639 415.69 55.3825 420.136 67.801 413.117 81.6701 400.016 86.3599 386.912 91.0497 372.688 84.7843 368.243 72.3657Z" stroke="#4E95D9" stroke-width="2.88868" stroke-linecap="butt" stroke-linejoin="miter" stroke-miterlimit="8" stroke-opacity="1" fill="#4E95D9" fill-rule="evenodd" fill-opacity="1" transform="matrix(0.842822 -0.538192 0.538223 0.842869 1307.27 1509.41)"/><path d="M443.067 125.589C423.466 122.769 408.33 110.844 404.762 80.0919" stroke="#4E95D9" stroke-width="2.88868" stroke-linecap="butt" stroke-linejoin="miter" stroke-miterlimit="8" stroke-opacity="1" fill="none" fill-rule="evenodd" transform="matrix(0.842822 -0.538192 0.538223 0.842869 1307.27 1509.41)"/><path d="M386.955 86.7644C408.987 100.762 412.001 125.611 400.812 141.096" stroke="#4E95D9" stroke-width="2.88868" stroke-linecap="butt" stroke-linejoin="miter" stroke-miterlimit="8" stroke-opacity="1" fill="none" fill-rule="evenodd" transform="matrix(0.842822 -0.538192 0.538223 0.842869 1307.27 1509.41)"/><path d="M230.84 170.966C223.471 160.026 226.852 144.855 238.394 137.079 249.936 129.304 265.267 131.868 272.637 142.807 280.006 153.747 276.625 168.918 265.083 176.693 253.541 184.469 238.21 181.904 230.84 170.966Z" stroke="#4E95D9" stroke-width="2.88868" stroke-linecap="butt" stroke-linejoin="miter" stroke-miterlimit="8" stroke-opacity="1" fill="#4E95D9" fill-rule="evenodd" fill-opacity="1" transform="matrix(0.842822 -0.538192 0.538223 0.842869 1307.27 1509.41)"/><path d="M317.218 198.089C297.525 200.189 279.918 192.363 268.878 163.441" stroke="#4E95D9" stroke-width="2.88868" stroke-linecap="butt" stroke-linejoin="miter" stroke-miterlimit="8" stroke-opacity="1" fill="none" fill-rule="evenodd" transform="matrix(0.842822 -0.538192 0.538223 0.842869 1307.27 1509.41)"/><path d="M250.035 175.985C274.838 184.118 283.887 207.457 276.86 225.222" stroke="#4E95D9" stroke-width="2.88868" stroke-linecap="butt" stroke-linejoin="miter" stroke-miterlimit="8" stroke-opacity="1" fill="none" fill-rule="evenodd" transform="matrix(0.842822 -0.538192 0.538223 0.842869 1307.27 1509.41)"/><path d="M275.548 132.578C270.113 120.56 275.987 106.169 288.668 100.435 301.349 94.7014 316.033 99.7963 321.468 111.815 326.901 123.833 321.027 138.224 308.348 143.958 295.667 149.693 280.982 144.597 275.548 132.578Z" stroke="#4E95D9" stroke-width="2.88868" stroke-linecap="butt" stroke-linejoin="miter" stroke-miterlimit="8" stroke-opacity="1" fill="#4E95D9" fill-rule="evenodd" fill-opacity="1" transform="matrix(0.842822 -0.538192 0.538223 0.842869 1307.27 1509.41)"/><path d="M356.165 173.78C336.4 172.554 320.35 161.891 314.307 131.528" stroke="#4E95D9" stroke-width="2.88868" stroke-linecap="butt" stroke-linejoin="miter" stroke-miterlimit="8" stroke-opacity="1" fill="none" fill-rule="evenodd" transform="matrix(0.842822 -0.538192 0.538223 0.842869 1307.27 1509.41)"/><path d="M293.631 140.74C316.722 152.911 321.735 177.436 311.835 193.773" stroke="#4E95D9" stroke-width="2.88868" stroke-linecap="butt" stroke-linejoin="miter" stroke-miterlimit="8" stroke-opacity="1" fill="none" fill-rule="evenodd" transform="matrix(0.842822 -0.538192 0.538223 0.842869 1307.27 1509.41)"/><path d="M422.211 52.4465C419.508 39.5364 428.358 26.7586 441.98 23.9066 455.601 21.0546 468.834 29.2083 471.537 42.1185 474.24 55.0285 465.39 67.8062 451.769 70.6583 438.147 73.5103 424.914 65.3567 422.211 52.4465Z" stroke="#4E95D9" stroke-width="2.88868" stroke-linecap="butt" stroke-linejoin="miter" stroke-miterlimit="8" stroke-opacity="1" fill="#4E95D9" fill-rule="evenodd" fill-opacity="1" transform="matrix(0.842822 -0.538192 0.538223 0.842869 1307.27 1509.41)"/><path d="M493.027 112.607C473.994 107.13 460.634 93.2447 461.309 62.2939" stroke="#4E95D9" stroke-width="2.88868" stroke-linecap="butt" stroke-linejoin="miter" stroke-miterlimit="8" stroke-opacity="1" fill="none" fill-rule="evenodd" transform="matrix(0.842822 -0.538192 0.538223 0.842869 1307.27 1509.41)"/><path d="M441.064 65.9089C460.972 82.7909 460.556 107.818 447.353 121.626" stroke="#4E95D9" stroke-width="2.88868" stroke-linecap="butt" stroke-linejoin="miter" stroke-miterlimit="8" stroke-opacity="1" fill="none" fill-rule="evenodd" transform="matrix(0.842822 -0.538192 0.538223 0.842869 1307.27 1509.41)"/><path d="M590.761 24.876C594.651 12.2725 608.584 5.3823 621.882 9.48629 635.18 13.5903 642.807 27.1344 638.917 39.7379 635.027 52.3414 621.093 59.2316 607.795 55.1276 594.498 51.0236 586.871 37.4795 590.761 24.876Z" stroke="#4E95D9" stroke-width="3.73828" stroke-linecap="butt" stroke-linejoin="miter" stroke-miterlimit="8" stroke-opacity="1" fill="#4E95D9" fill-rule="evenodd" fill-opacity="1" transform="matrix(0.842822 -0.538192 0.538223 0.842869 1307.27 1509.41)"/><path d="M623.865 109.143C609.869 95.1315 604.908 76.5124 620.494 49.7631" stroke="#4E95D9" stroke-width="3.73828" stroke-linecap="butt" stroke-linejoin="miter" stroke-miterlimit="8" stroke-opacity="1" fill="none" fill-rule="evenodd" transform="matrix(0.842822 -0.538192 0.538223 0.842869 1307.27 1509.41)"/><path d="M601.015 48.6942C610.253 73.1075 597.763 94.8003 579.523 100.483" stroke="#4E95D9" stroke-width="3.73828" stroke-linecap="butt" stroke-linejoin="miter" stroke-miterlimit="8" stroke-opacity="1" fill="none" fill-rule="evenodd" transform="matrix(0.842822 -0.538192 0.538223 0.842869 1307.27 1509.41)"/><path d="M699.653 57.6828C706.944 46.6916 722.256 44.0186 733.853 51.7122 745.449 59.4059 748.939 74.5528 741.647 85.5439 734.355 96.5351 719.042 99.2081 707.446 91.5146 695.85 83.8208 692.361 68.6739 699.653 57.6828Z" stroke="#4E95D9" stroke-width="3.73828" stroke-linecap="butt" stroke-linejoin="miter" stroke-miterlimit="8" stroke-opacity="1" fill="#4E95D9" fill-rule="evenodd" fill-opacity="1" transform="matrix(0.842822 -0.538192 0.538223 0.842869 1307.27 1509.41)"/><path d="M707.6 147.869C698.133 130.474 698.635 111.213 721.142 89.9561" stroke="#4E95D9" stroke-width="3.73828" stroke-linecap="butt" stroke-linejoin="miter" stroke-miterlimit="8" stroke-opacity="1" fill="none" fill-rule="evenodd" transform="matrix(0.842822 -0.538192 0.538223 0.842869 1307.27 1509.41)"/><path d="M702.35 77.3385C704.314 103.367 686.205 120.648 667.103 120.946" stroke="#4E95D9" stroke-width="3.73828" stroke-linecap="butt" stroke-linejoin="miter" stroke-miterlimit="8" stroke-opacity="1" fill="none" fill-rule="evenodd" transform="matrix(0.842822 -0.538192 0.538223 0.842869 1307.27 1509.41)"/><path d="M751.888 78.6733C758.765 67.418 773.967 64.176 785.842 71.4319 797.718 78.688 801.769 93.6944 794.891 104.95 788.015 116.205 772.813 119.447 760.937 112.191 749.062 104.935 745.01 89.9287 751.888 78.6733Z" stroke="#4E95D9" stroke-width="3.73828" stroke-linecap="butt" stroke-linejoin="miter" stroke-miterlimit="8" stroke-opacity="1" fill="#4E95D9" fill-rule="evenodd" fill-opacity="1" transform="matrix(0.842822 -0.538192 0.538223 0.842869 1307.27 1509.41)"/><path d="M760.708 164.651C750.598 147.622 750.382 128.355 772.08 106.274" stroke="#4E95D9" stroke-width="3.73828" stroke-linecap="butt" stroke-linejoin="miter" stroke-miterlimit="8" stroke-opacity="1" fill="none" fill-rule="evenodd" transform="matrix(0.842822 -0.538192 0.538223 0.842869 1307.27 1509.41)"/><path d="M751.565 99.5701C754.497 125.507 737.045 143.451 717.967 144.461" stroke="#4E95D9" stroke-width="3.73828" stroke-linecap="butt" stroke-linejoin="miter" stroke-miterlimit="8" stroke-opacity="1" fill="none" fill-rule="evenodd" transform="matrix(0.842822 -0.538192 0.538223 0.842869 1307.27 1509.41)"/><path d="M648.706 35.5835C654.651 23.809 669.541 19.3487 681.964 25.6209 694.387 31.8932 699.638 46.5229 693.693 58.2974 687.749 70.0718 672.859 74.5322 660.436 68.2599 648.013 61.9877 642.761 47.3579 648.706 35.5835Z" stroke="#4E95D9" stroke-width="3.73828" stroke-linecap="butt" stroke-linejoin="miter" stroke-miterlimit="8" stroke-opacity="1" fill="#4E95D9" fill-rule="evenodd" fill-opacity="1" transform="matrix(0.842822 -0.538192 0.538223 0.842869 1307.27 1509.41)"/><path d="M667.235 124.203C655.782 108.046 654.009 88.8596 673.852 65.097" stroke="#4E95D9" stroke-width="3.73828" stroke-linecap="butt" stroke-linejoin="miter" stroke-miterlimit="8" stroke-opacity="1" fill="none" fill-rule="evenodd" transform="matrix(0.842822 -0.538192 0.538223 0.842869 1307.27 1509.41)"/><path d="M653.703 54.784C658.723 80.3992 642.778 99.6951 623.846 102.244" stroke="#4E95D9" stroke-width="3.73828" stroke-linecap="butt" stroke-linejoin="miter" stroke-miterlimit="8" stroke-opacity="1" fill="none" fill-rule="evenodd" transform="matrix(0.842822 -0.538192 0.538223 0.842869 1307.27 1509.41)"/><path d="M254.459 253.922C241.634 269.013 223.481 275.475 195.55 262.123" stroke="#4E95D9" stroke-width="2.88868" stroke-linecap="butt" stroke-linejoin="miter" stroke-miterlimit="8" stroke-opacity="1" fill="none" fill-rule="evenodd" transform="matrix(0.842822 -0.538192 0.538223 0.842869 1307.27 1509.41)"/><path d="M190.539 284.197C214.118 272.999 236.757 283.679 243.908 301.395" stroke="#4E95D9" stroke-width="2.88868" stroke-linecap="butt" stroke-linejoin="miter" stroke-miterlimit="8" stroke-opacity="1" fill="none" fill-rule="evenodd" transform="matrix(0.842822 -0.538192 0.538223 0.842869 1307.27 1509.41)"/><path d="M173.171 293.784C160.291 290.935 152.288 277.609 155.295 264.023 158.301 250.434 171.179 241.729 184.057 244.578 196.935 247.428 204.939 260.753 201.933 274.341 198.927 287.929 186.049 296.634 173.171 293.784Z" stroke="#4E95D9" stroke-width="2.88868" stroke-linecap="butt" stroke-linejoin="miter" stroke-miterlimit="8" stroke-opacity="1" fill="#4E95D9" fill-rule="evenodd" fill-opacity="1" transform="matrix(0.842822 -0.538192 0.538223 0.842869 1307.27 1509.41)"/><path d="M901.489 207.939C913.839 203.307 927.811 210.116 932.698 223.146 937.584 236.177 931.534 250.495 919.184 255.126 906.834 259.758 892.86 252.948 887.973 239.917 883.087 226.886 889.137 212.57 901.489 207.939Z" stroke="#4E95D9" stroke-width="2.88868" stroke-linecap="butt" stroke-linejoin="miter" stroke-miterlimit="8" stroke-opacity="1" fill="#4E95D9" fill-rule="evenodd" fill-opacity="1" transform="matrix(0.842822 -0.538192 0.538223 0.842869 1307.27 1509.41)"/><path d="M858.851 283.767C861.377 264.123 873.073 248.812 903.767 244.781" stroke="#4E95D9" stroke-width="2.88868" stroke-linecap="butt" stroke-linejoin="miter" stroke-miterlimit="8" stroke-opacity="1" fill="none" fill-rule="evenodd" transform="matrix(0.842822 -0.538192 0.538223 0.842869 1307.27 1509.41)"/><path d="M885.985 230.398C872.319 252.638 847.518 256.025 831.867 245.07" stroke="#4E95D9" stroke-width="2.88868" stroke-linecap="butt" stroke-linejoin="miter" stroke-miterlimit="8" stroke-opacity="1" fill="none" fill-rule="evenodd" transform="matrix(0.842822 -0.538192 0.538223 0.842869 1307.27 1509.41)"/><path d="M861.495 157.121C873.845 152.489 887.818 159.298 892.704 172.328 897.59 185.359 891.54 199.677 879.19 204.308 866.84 208.94 852.866 202.13 847.979 189.099 843.093 176.07 849.144 161.752 861.495 157.121Z" stroke="#4E95D9" stroke-width="2.88868" stroke-linecap="butt" stroke-linejoin="miter" stroke-miterlimit="8" stroke-opacity="1" fill="#4E95D9" fill-rule="evenodd" fill-opacity="1" transform="matrix(0.842822 -0.538192 0.538223 0.842869 1307.27 1509.41)"/><path d="M818.857 232.949C821.383 213.305 833.079 197.994 863.773 193.963" stroke="#4E95D9" stroke-width="2.88868" stroke-linecap="butt" stroke-linejoin="miter" stroke-miterlimit="8" stroke-opacity="1" fill="none" fill-rule="evenodd" transform="matrix(0.842822 -0.538192 0.538223 0.842869 1307.27 1509.41)"/><path d="M845.991 179.58C832.325 201.82 807.524 205.207 791.873 194.252" stroke="#4E95D9" stroke-width="2.88868" stroke-linecap="butt" stroke-linejoin="miter" stroke-miterlimit="8" stroke-opacity="1" fill="none" fill-rule="evenodd" transform="matrix(0.842822 -0.538192 0.538223 0.842869 1307.27 1509.41)"/><path d="M809.865 111.877C821.114 104.99 836.125 109.029 843.39 120.898 850.656 132.768 847.426 147.972 836.177 154.859 824.927 161.746 809.918 157.706 802.651 145.837 795.386 133.968 798.615 118.763 809.865 111.877Z" stroke="#4E95D9" stroke-width="2.88868" stroke-linecap="butt" stroke-linejoin="miter" stroke-miterlimit="8" stroke-opacity="1" fill="#4E95D9" fill-rule="evenodd" fill-opacity="1" transform="matrix(0.842822 -0.538192 0.538223 0.842869 1307.27 1509.41)"/><path d="M782.362 194.408C781.12 174.643 789.705 157.392 819.081 147.621" stroke="#4E95D9" stroke-width="2.88868" stroke-linecap="butt" stroke-linejoin="miter" stroke-miterlimit="8" stroke-opacity="1" fill="none" fill-rule="evenodd" transform="matrix(0.842822 -0.538192 0.538223 0.842869 1307.27 1509.41)"/><path d="M798.895 136.867C789.69 161.292 765.981 169.317 748.537 161.524" stroke="#4E95D9" stroke-width="2.88868" stroke-linecap="butt" stroke-linejoin="miter" stroke-miterlimit="8" stroke-opacity="1" fill="none" fill-rule="evenodd" transform="matrix(0.842822 -0.538192 0.538223 0.842869 1307.27 1509.41)"/><path d="M900.786 593.989C912.208 600.587 915.825 615.704 908.864 627.755 901.903 639.805 887.002 644.227 875.58 637.63 864.159 631.032 860.542 615.915 867.503 603.864 874.462 591.814 889.364 587.393 900.786 593.989Z" stroke="#4E95D9" stroke-width="2.88868" stroke-linecap="butt" stroke-linejoin="miter" stroke-miterlimit="8" stroke-opacity="1" fill="#4E95D9" fill-rule="evenodd" fill-opacity="1" transform="matrix(0.842822 -0.538192 0.538223 0.842869 1307.27 1509.41)"/><path d="M815.137 609.224C831.912 598.698 851.168 598.005 873.779 619.152" stroke="#4E95D9" stroke-width="2.88868" stroke-linecap="butt" stroke-linejoin="miter" stroke-miterlimit="8" stroke-opacity="1" fill="none" fill-rule="evenodd" transform="matrix(0.842822 -0.538192 0.538223 0.842869 1307.27 1509.41)"/><path d="M873.59 596.282C847.733 599.854 829.364 582.851 827.884 563.804" stroke="#4E95D9" stroke-width="2.88868" stroke-linecap="butt" stroke-linejoin="miter" stroke-miterlimit="8" stroke-opacity="1" fill="none" fill-rule="evenodd" transform="matrix(0.842822 -0.538192 0.538223 0.842869 1307.27 1509.41)"/><path d="M476.773 37.3672C476.06 24.1964 486.748 12.9094 500.643 12.1569 514.54 11.4044 526.383 21.4714 527.096 34.6422 527.809 47.813 517.122 59.1001 503.226 59.8526 489.33 60.605 477.487 50.538 476.773 37.3672Z" stroke="#4E95D9" stroke-width="2.88868" stroke-linecap="butt" stroke-linejoin="miter" stroke-miterlimit="8" stroke-opacity="1" fill="#4E95D9" fill-rule="evenodd" fill-opacity="1" transform="matrix(0.842822 -0.538192 0.538223 0.842869 1307.27 1509.41)"/><path d="M536.32 100.788C518.339 92.4865 507.241 76.7354 512.603 46.2452" stroke="#4E95D9" stroke-width="2.88868" stroke-linecap="butt" stroke-linejoin="miter" stroke-miterlimit="8" stroke-opacity="1" fill="none" fill-rule="evenodd" transform="matrix(0.842822 -0.538192 0.538223 0.842869 1307.27 1509.41)"/><path d="M493.549 58.8947C510.665 78.6017 506.458 103.276 491.312 114.921" stroke="#4E95D9" stroke-width="2.88868" stroke-linecap="butt" stroke-linejoin="miter" stroke-miterlimit="8" stroke-opacity="1" fill="none" fill-rule="evenodd" transform="matrix(0.842822 -0.538192 0.538223 0.842869 1307.27 1509.41)"/><path d="M530.311 31.7092C529.598 18.5384 540.284 7.25136 554.181 6.49888 568.076 5.7464 579.92 15.8134 580.634 28.9842 581.347 42.155 570.659 53.442 556.763 54.1945 542.867 54.9471 531.024 44.88 530.311 31.7092Z" stroke="#4E95D9" stroke-width="2.88868" stroke-linecap="butt" stroke-linejoin="miter" stroke-miterlimit="8" stroke-opacity="1" fill="#4E95D9" fill-rule="evenodd" fill-opacity="1" transform="matrix(0.842822 -0.538192 0.538223 0.842869 1307.27 1509.41)"/><path d="M589.856 95.1296C571.877 86.8286 560.778 71.0773 566.141 40.5872" stroke="#4E95D9" stroke-width="2.88868" stroke-linecap="butt" stroke-linejoin="miter" stroke-miterlimit="8" stroke-opacity="1" fill="none" fill-rule="evenodd" transform="matrix(0.842822 -0.538192 0.538223 0.842869 1307.27 1509.41)"/><path d="M547.086 53.2368C564.203 72.9436 559.994 97.6184 544.848 109.263" stroke="#4E95D9" stroke-width="2.88868" stroke-linecap="butt" stroke-linejoin="miter" stroke-miterlimit="8" stroke-opacity="1" fill="none" fill-rule="evenodd" transform="matrix(0.842822 -0.538192 0.538223 0.842869 1307.27 1509.41)"/><path d="M866.558 640.056C876.789 648.38 877.965 663.878 869.183 674.674 860.399 685.468 844.985 687.473 834.755 679.148 824.522 670.824 823.348 655.326 832.13 644.53 840.912 633.735 856.326 631.732 866.558 640.056Z" stroke="#4E95D9" stroke-width="2.88868" stroke-linecap="butt" stroke-linejoin="miter" stroke-miterlimit="8" stroke-opacity="1" fill="#4E95D9" fill-rule="evenodd" fill-opacity="1" transform="matrix(0.842822 -0.538192 0.538223 0.842869 1307.27 1509.41)"/><path d="M779.577 641.522C797.808 633.787 816.931 636.156 835.902 660.618" stroke="#4E95D9" stroke-width="2.88868" stroke-linecap="butt" stroke-linejoin="miter" stroke-miterlimit="8" stroke-opacity="1" fill="none" fill-rule="evenodd" transform="matrix(0.842822 -0.538192 0.538223 0.842869 1307.27 1509.41)"/><path d="M839.343 638.008C813.247 637.437 797.804 617.737 799.361 598.696" stroke="#4E95D9" stroke-width="2.88868" stroke-linecap="butt" stroke-linejoin="miter" stroke-miterlimit="8" stroke-opacity="1" fill="none" fill-rule="evenodd" transform="matrix(0.842822 -0.538192 0.538223 0.842869 1307.27 1509.41)"/><path d="M824.24 681.485C834.473 689.809 835.647 705.309 826.865 716.103 818.083 726.899 802.669 728.903 792.437 720.579 782.204 712.255 781.03 696.755 789.812 685.961 798.596 675.165 814.009 673.161 824.24 681.485Z" stroke="#4E95D9" stroke-width="2.88868" stroke-linecap="butt" stroke-linejoin="miter" stroke-miterlimit="8" stroke-opacity="1" fill="#4E95D9" fill-rule="evenodd" fill-opacity="1" transform="matrix(0.842822 -0.538192 0.538223 0.842869 1307.27 1509.41)"/><path d="M737.259 682.952C755.491 675.218 774.613 677.586 793.586 702.049" stroke="#4E95D9" stroke-width="2.88868" stroke-linecap="butt" stroke-linejoin="miter" stroke-miterlimit="8" stroke-opacity="1" fill="none" fill-rule="evenodd" transform="matrix(0.842822 -0.538192 0.538223 0.842869 1307.27 1509.41)"/><path d="M797.027 679.439C770.93 678.868 755.488 659.168 757.045 640.127" stroke="#4E95D9" stroke-width="2.88868" stroke-linecap="butt" stroke-linejoin="miter" stroke-miterlimit="8" stroke-opacity="1" fill="none" fill-rule="evenodd" transform="matrix(0.842822 -0.538192 0.538223 0.842869 1307.27 1509.41)"/><path d="M777.084 721.617C782.385 733.694 776.353 748.021 763.611 753.615 750.868 759.208 736.24 753.953 730.937 741.874 725.636 729.797 731.668 715.471 744.41 709.878 757.153 704.284 771.781 709.54 777.084 721.617Z" stroke="#4E95D9" stroke-width="2.88868" stroke-linecap="butt" stroke-linejoin="miter" stroke-miterlimit="8" stroke-opacity="1" fill="#4E95D9" fill-rule="evenodd" fill-opacity="1" transform="matrix(0.842822 -0.538192 0.538223 0.842869 1307.27 1509.41)"/><path d="M699.03 683.205C718.781 684.648 734.713 695.487 740.421 725.914" stroke="#4E95D9" stroke-width="2.88868" stroke-linecap="butt" stroke-linejoin="miter" stroke-miterlimit="8" stroke-opacity="1" fill="none" fill-rule="evenodd" transform="matrix(0.842822 -0.538192 0.538223 0.842869 1307.27 1509.41)"/><path d="M753.806 707.369C730.85 694.944 726.107 670.367 736.185 654.138" stroke="#4E95D9" stroke-width="2.88868" stroke-linecap="butt" stroke-linejoin="miter" stroke-miterlimit="8" stroke-opacity="1" fill="none" fill-rule="evenodd" transform="matrix(0.842822 -0.538192 0.538223 0.842869 1307.27 1509.41)"/><path d="M267.371 663.707C256.916 671.748 241.563 669.325 233.078 658.293 224.594 647.263 226.192 631.802 236.647 623.76 247.104 615.719 262.457 618.142 270.941 629.174 279.425 640.204 277.827 655.665 267.371 663.707Z" stroke="#4E95D9" stroke-width="2.88868" stroke-linecap="butt" stroke-linejoin="miter" stroke-miterlimit="8" stroke-opacity="1" fill="#4E95D9" fill-rule="evenodd" fill-opacity="1" transform="matrix(0.842822 -0.538192 0.538223 0.842869 1307.27 1509.41)"/><path d="M285.963 578.724C289.294 598.245 282.588 616.309 254.416 629.143" stroke="#4E95D9" stroke-width="2.88868" stroke-linecap="butt" stroke-linejoin="miter" stroke-miterlimit="8" stroke-opacity="1" fill="none" fill-rule="evenodd" transform="matrix(0.842822 -0.538192 0.538223 0.842869 1307.27 1509.41)"/><path d="M275.628 637.695C282.189 612.43 304.914 601.936 323.086 607.834" stroke="#4E95D9" stroke-width="2.88868" stroke-linecap="butt" stroke-linejoin="miter" stroke-miterlimit="8" stroke-opacity="1" fill="none" fill-rule="evenodd" transform="matrix(0.842822 -0.538192 0.538223 0.842869 1307.27 1509.41)"/><path d="M222.706 617.395C210.16 621.47 196.507 614.043 192.207 600.806 187.908 587.571 194.592 573.538 207.138 569.464 219.682 565.389 233.337 572.815 237.636 586.051 241.935 599.288 235.25 613.32 222.706 617.395Z" stroke="#4E95D9" stroke-width="2.88868" stroke-linecap="butt" stroke-linejoin="miter" stroke-miterlimit="8" stroke-opacity="1" fill="#4E95D9" fill-rule="evenodd" fill-opacity="1" transform="matrix(0.842822 -0.538192 0.538223 0.842869 1307.27 1509.41)"/><path d="M268.689 543.548C265.289 563.058 252.92 577.832 222.076 580.487" stroke="#4E95D9" stroke-width="2.88868" stroke-linecap="butt" stroke-linejoin="miter" stroke-miterlimit="8" stroke-opacity="1" fill="none" fill-rule="evenodd" transform="matrix(0.842822 -0.538192 0.538223 0.842869 1307.27 1509.41)"/><path d="M239.198 595.65C253.844 574.043 278.771 571.769 293.917 583.411" stroke="#4E95D9" stroke-width="2.88868" stroke-linecap="butt" stroke-linejoin="miter" stroke-miterlimit="8" stroke-opacity="1" fill="none" fill-rule="evenodd" transform="matrix(0.842822 -0.538192 0.538223 0.842869 1307.27 1509.41)"/><path d="M308.925 705.07C298.47 713.112 283.117 710.687 274.633 699.657 266.148 688.625 267.746 673.164 278.201 665.122 288.657 657.082 304.01 659.505 312.494 670.536 320.978 681.568 319.381 697.029 308.925 705.07Z" stroke="#4E95D9" stroke-width="2.88868" stroke-linecap="butt" stroke-linejoin="miter" stroke-miterlimit="8" stroke-opacity="1" fill="#4E95D9" fill-rule="evenodd" fill-opacity="1" transform="matrix(0.842822 -0.538192 0.538223 0.842869 1307.27 1509.41)"/><path d="M327.517 620.086C330.849 639.609 324.143 657.673 295.97 670.505" stroke="#4E95D9" stroke-width="2.88868" stroke-linecap="butt" stroke-linejoin="miter" stroke-miterlimit="8" stroke-opacity="1" fill="none" fill-rule="evenodd" transform="matrix(0.842822 -0.538192 0.538223 0.842869 1307.27 1509.41)"/><path d="M317.182 679.057C323.743 653.792 346.469 643.299 364.64 649.197" stroke="#4E95D9" stroke-width="2.88868" stroke-linecap="butt" stroke-linejoin="miter" stroke-miterlimit="8" stroke-opacity="1" fill="none" fill-rule="evenodd" transform="matrix(0.842822 -0.538192 0.538223 0.842869 1307.27 1509.41)"/><path d="M353.977 739.908C343.521 747.95 328.168 745.525 319.684 734.495 311.198 723.463 312.797 708.002 323.252 699.96 333.708 691.919 349.061 694.342 357.545 705.374 366.029 716.406 364.432 731.867 353.977 739.908Z" stroke="#4E95D9" stroke-width="2.88868" stroke-linecap="butt" stroke-linejoin="miter" stroke-miterlimit="8" stroke-opacity="1" fill="#4E95D9" fill-rule="evenodd" fill-opacity="1" transform="matrix(0.842822 -0.538192 0.538223 0.842869 1307.27 1509.41)"/><path d="M372.568 654.924C375.9 674.447 369.194 692.511 341.021 705.343" stroke="#4E95D9" stroke-width="2.88868" stroke-linecap="butt" stroke-linejoin="miter" stroke-miterlimit="8" stroke-opacity="1" fill="none" fill-rule="evenodd" transform="matrix(0.842822 -0.538192 0.538223 0.842869 1307.27 1509.41)"/><path d="M362.233 713.895C368.793 688.63 391.52 678.137 409.69 684.034" stroke="#4E95D9" stroke-width="2.88868" stroke-linecap="butt" stroke-linejoin="miter" stroke-miterlimit="8" stroke-opacity="1" fill="none" fill-rule="evenodd" transform="matrix(0.842822 -0.538192 0.538223 0.842869 1307.27 1509.41)"/><path d="M407.332 765.705C396.876 773.746 381.523 771.323 373.039 760.291 364.554 749.259 366.152 733.798 376.607 725.757 387.063 717.715 402.416 720.14 410.9 731.17 419.384 742.202 417.787 757.663 407.332 765.705Z" stroke="#4E95D9" stroke-width="2.88868" stroke-linecap="butt" stroke-linejoin="miter" stroke-miterlimit="8" stroke-opacity="1" fill="#4E95D9" fill-rule="evenodd" fill-opacity="1" transform="matrix(0.842822 -0.538192 0.538223 0.842869 1307.27 1509.41)"/><path d="M425.923 680.721C429.255 700.243 422.549 718.307 394.376 731.14" stroke="#4E95D9" stroke-width="2.88868" stroke-linecap="butt" stroke-linejoin="miter" stroke-miterlimit="8" stroke-opacity="1" fill="none" fill-rule="evenodd" transform="matrix(0.842822 -0.538192 0.538223 0.842869 1307.27 1509.41)"/><path d="M415.588 739.691C422.15 714.427 444.875 703.933 463.046 709.83" stroke="#4E95D9" stroke-width="2.88868" stroke-linecap="butt" stroke-linejoin="miter" stroke-miterlimit="8" stroke-opacity="1" fill="none" fill-rule="evenodd" transform="matrix(0.842822 -0.538192 0.538223 0.842869 1307.27 1509.41)"/><path d="M467.751 778.786C459.47 789.053 443.976 790.292 433.143 781.555 422.312 772.817 420.245 757.412 428.525 747.146 436.808 736.879 452.302 735.64 463.133 744.377 473.965 753.115 476.032 768.52 467.751 778.786Z" stroke="#4E95D9" stroke-width="2.88868" stroke-linecap="butt" stroke-linejoin="miter" stroke-miterlimit="8" stroke-opacity="1" fill="#4E95D9" fill-rule="evenodd" fill-opacity="1" transform="matrix(0.842822 -0.538192 0.538223 0.842869 1307.27 1509.41)"/><path d="M465.923 691.812C473.733 710.011 471.444 729.144 447.061 748.218" stroke="#4E95D9" stroke-width="2.88868" stroke-linecap="butt" stroke-linejoin="miter" stroke-miterlimit="8" stroke-opacity="1" fill="none" fill-rule="evenodd" transform="matrix(0.842822 -0.538192 0.538223 0.842869 1307.27 1509.41)"/><path d="M469.685 751.564C470.148 725.465 489.783 709.941 508.83 711.419" stroke="#4E95D9" stroke-width="2.88868" stroke-linecap="butt" stroke-linejoin="miter" stroke-miterlimit="8" stroke-opacity="1" fill="none" fill-rule="evenodd" transform="matrix(0.842822 -0.538192 0.538223 0.842869 1307.27 1509.41)"/><path d="M526.196 789.99C519.033 801.066 503.754 803.919 492.067 796.362 480.381 788.807 476.714 773.701 483.875 762.625 491.038 751.549 506.317 748.696 518.004 756.251 529.69 763.808 533.357 778.914 526.196 789.99Z" stroke="#4E95D9" stroke-width="2.88868" stroke-linecap="butt" stroke-linejoin="miter" stroke-miterlimit="8" stroke-opacity="1" fill="#4E95D9" fill-rule="evenodd" fill-opacity="1" transform="matrix(0.842822 -0.538192 0.538223 0.842869 1307.27 1509.41)"/><path d="M515.28 703.683C524.952 720.966 524.676 740.232 502.421 761.753" stroke="#4E95D9" stroke-width="2.88868" stroke-linecap="butt" stroke-linejoin="miter" stroke-miterlimit="8" stroke-opacity="1" fill="none" fill-rule="evenodd" transform="matrix(0.842822 -0.538192 0.538223 0.842869 1307.27 1509.41)"/><path d="M525.272 762.714C523.002 736.71 540.905 719.217 560.003 718.694" stroke="#4E95D9" stroke-width="2.88868" stroke-linecap="butt" stroke-linejoin="miter" stroke-miterlimit="8" stroke-opacity="1" fill="none" fill-rule="evenodd" transform="matrix(0.842822 -0.538192 0.538223 0.842869 1307.27 1509.41)"/><path d="M594.615 791.452C589.014 803.393 574.26 808.284 561.661 802.374 549.06 796.466 543.386 781.994 548.987 770.052 554.589 758.111 569.342 753.22 581.943 759.13 594.542 765.038 600.216 779.51 594.615 791.452Z" stroke="#4E95D9" stroke-width="2.88868" stroke-linecap="butt" stroke-linejoin="miter" stroke-miterlimit="8" stroke-opacity="1" fill="#4E95D9" fill-rule="evenodd" fill-opacity="1" transform="matrix(0.842822 -0.538192 0.538223 0.842869 1307.27 1509.41)"/><path d="M572.145 707.41C584.061 723.227 586.391 742.354 567.244 766.684" stroke="#4E95D9" stroke-width="2.88868" stroke-linecap="butt" stroke-linejoin="miter" stroke-miterlimit="8" stroke-opacity="1" fill="none" fill-rule="evenodd" transform="matrix(0.842822 -0.538192 0.538223 0.842869 1307.27 1509.41)"/><path d="M590.016 764.55C584.255 739.09 599.633 719.341 618.485 716.244" stroke="#4E95D9" stroke-width="2.88868" stroke-linecap="butt" stroke-linejoin="miter" stroke-miterlimit="8" stroke-opacity="1" fill="none" fill-rule="evenodd" transform="matrix(0.842822 -0.538192 0.538223 0.842869 1307.27 1509.41)"/><path d="M659.659 776.532C657.526 789.548 644.666 798.278 630.933 796.029 617.199 793.78 607.793 781.405 609.925 768.389 612.056 755.372 624.916 746.643 638.65 748.891 652.384 751.14 661.79 763.515 659.659 776.532Z" stroke="#4E95D9" stroke-width="2.88868" stroke-linecap="butt" stroke-linejoin="miter" stroke-miterlimit="8" stroke-opacity="1" fill="#4E95D9" fill-rule="evenodd" fill-opacity="1" transform="matrix(0.842822 -0.538192 0.538223 0.842869 1307.27 1509.41)"/><path d="M615.117 701.806C630.897 713.773 638.355 731.541 626.57 760.168" stroke="#4E95D9" stroke-width="2.88868" stroke-linecap="butt" stroke-linejoin="miter" stroke-miterlimit="8" stroke-opacity="1" fill="none" fill-rule="evenodd" transform="matrix(0.842822 -0.538192 0.538223 0.842869 1307.27 1509.41)"/><path d="M647.896 751.905C635.41 728.983 644.818 705.786 662.11 697.666" stroke="#4E95D9" stroke-width="2.88868" stroke-linecap="butt" stroke-linejoin="miter" stroke-miterlimit="8" stroke-opacity="1" fill="none" fill-rule="evenodd" transform="matrix(0.842822 -0.538192 0.538223 0.842869 1307.27 1509.41)"/><path d="M720.634 754.633C723.276 767.556 714.367 780.291 700.732 783.081 687.098 785.869 673.903 777.653 671.26 764.731 668.617 751.808 677.527 739.071 691.161 736.283 704.796 733.495 717.991 741.711 720.634 754.633Z" stroke="#4E95D9" stroke-width="2.88868" stroke-linecap="butt" stroke-linejoin="miter" stroke-miterlimit="8" stroke-opacity="1" fill="#4E95D9" fill-rule="evenodd" fill-opacity="1" transform="matrix(0.842822 -0.538192 0.538223 0.842869 1307.27 1509.41)"/><path d="M652.407 700.661C671.413 706.228 684.708 720.175 683.887 751.122" stroke="#4E95D9" stroke-width="2.88868" stroke-linecap="butt" stroke-linejoin="miter" stroke-miterlimit="8" stroke-opacity="1" fill="none" fill-rule="evenodd" transform="matrix(0.842822 -0.538192 0.538223 0.842869 1307.27 1509.41)"/><path d="M700.875 735.807C681.045 718.832 681.578 693.807 694.846 680.061" stroke="#4E95D9" stroke-width="2.88868" stroke-linecap="butt" stroke-linejoin="miter" stroke-miterlimit="8" stroke-opacity="1" fill="none" fill-rule="evenodd" transform="matrix(0.842822 -0.538192 0.538223 0.842869 1307.27 1509.41)"/><path d="M293.774 408.703C293.774 270.29 408.867 158.083 550.844 158.083 692.821 158.083 807.914 270.29 807.914 408.703 807.914 547.116 692.821 659.322 550.844 659.322 408.867 659.322 293.774 547.116 293.774 408.703ZM419.083 408.703C419.083 477.909 478.075 534.013 550.844 534.013 623.614 534.013 682.606 477.909 682.606 408.703 682.606 339.496 623.614 283.393 550.844 283.393 478.075 283.393 419.083 339.496 419.083 408.703Z" fill="#DDEAF8" fill-rule="evenodd" fill-opacity="1" transform="matrix(0.842822 -0.538192 0.538223 0.842869 1307.27 1509.41)"/></g></g></g></g></g></svg>